<svg xmlns="http://www.w3.org/2000/svg" viewBox="0 0 512 512">
  <defs>
    <clipPath id="us-clip"><circle cx="256" cy="256" r="256"/></clipPath>
  </defs>
  <g clip-path="url(#us-clip)">
    <rect width="512" height="512" fill="#B22234"/>
    <rect y="39"  width="512" height="39" fill="#fff"/>
    <rect y="118" width="512" height="39" fill="#fff"/>
    <rect y="197" width="512" height="39" fill="#fff"/>
    <rect y="276" width="512" height="39" fill="#fff"/>
    <rect y="355" width="512" height="39" fill="#fff"/>
    <rect y="434" width="512" height="39" fill="#fff"/>
    <rect width="205" height="275" fill="#3C3B6E"/>
    <g fill="#fff">
      <circle cx="26" cy="24" r="8"/><circle cx="60" cy="24" r="8"/><circle cx="94" cy="24" r="8"/><circle cx="128" cy="24" r="8"/><circle cx="162" cy="24" r="8"/>
      <circle cx="43" cy="49" r="8"/><circle cx="77" cy="49" r="8"/><circle cx="111" cy="49" r="8"/><circle cx="145" cy="49" r="8"/>
      <circle cx="26" cy="74" r="8"/><circle cx="60" cy="74" r="8"/><circle cx="94" cy="74" r="8"/><circle cx="128" cy="74" r="8"/><circle cx="162" cy="74" r="8"/>
      <circle cx="43" cy="99" r="8"/><circle cx="77" cy="99" r="8"/><circle cx="111" cy="99" r="8"/><circle cx="145" cy="99" r="8"/>
      <circle cx="26" cy="124" r="8"/><circle cx="60" cy="124" r="8"/><circle cx="94" cy="124" r="8"/><circle cx="128" cy="124" r="8"/><circle cx="162" cy="124" r="8"/>
      <circle cx="43" cy="149" r="8"/><circle cx="77" cy="149" r="8"/><circle cx="111" cy="149" r="8"/><circle cx="145" cy="149" r="8"/>
      <circle cx="26" cy="174" r="8"/><circle cx="60" cy="174" r="8"/><circle cx="94" cy="174" r="8"/><circle cx="128" cy="174" r="8"/><circle cx="162" cy="174" r="8"/>
      <circle cx="43" cy="199" r="8"/><circle cx="77" cy="199" r="8"/><circle cx="111" cy="199" r="8"/><circle cx="145" cy="199" r="8"/>
      <circle cx="26" cy="224" r="8"/><circle cx="60" cy="224" r="8"/><circle cx="94" cy="224" r="8"/><circle cx="128" cy="224" r="8"/><circle cx="162" cy="224" r="8"/>
    </g>
  </g>
</svg>
