<?xml version="1.0" encoding="UTF-8" standalone="yes"?>
<!-- Created with sK1/UniConvertor (http://sk1project.org/) -->
<svg xmlns="http://www.w3.org/2000/svg" xmlns:xlink="http://www.w3.org/1999/xlink"
  width="595.276pt" height="841.89pt" viewBox="0 0 595.276 841.89"
  fill-rule="evenodd">
<g>
<path style="stroke:#ff00ff; stroke-width:0.850394; stroke-linejoin:round; stroke-linecap:round; fill:none" d="M 0 841.89L 840 841.89L 840 262.579L 0 262.579L 0 841.89z"/>
<path style="stroke:#ffff00; stroke-width:0.850394; stroke-linejoin:round; stroke-linecap:round; fill:none" d="M 0 841.89L 840 841.89L 840 798.441L 0 798.441L 0 841.89z"/>
<path style="stroke:#00ffff; stroke-width:0.850394; stroke-linejoin:round; stroke-linecap:round; fill:none" d="M 7.24138 791.2L 680.69 791.2L 680.69 356.717L 7.24138 356.717L 7.24138 791.2z"/>
<path style="stroke:#00ffff; stroke-width:0.850394; stroke-linejoin:round; stroke-linecap:round; fill:none" d="M 796.552 306.028C 796.552 298.034 790.063 291.545 782.069 291.545C 774.075 291.545 767.586 298.034 767.586 306.028C 767.586 314.022 774.075 320.51 782.069 320.51C 790.063 320.51 796.552 314.022 796.552 306.028z"/>
<path style="stroke:#00ff00; stroke-width:0.850394; stroke-linejoin:round; stroke-linecap:round; fill:none" d="M 202.759 313.269L 305.948 313.269L 305.948 298.786L 202.759 298.786L 202.759 313.269z"/>
<path style="stroke:#00ff00; stroke-width:0.850394; stroke-linejoin:round; stroke-linecap:round; fill:none" d="M 313.19 313.269L 416.379 313.269L 416.379 298.786L 313.19 298.786L 313.19 313.269z"/>
<path style="stroke:#00ff00; stroke-width:0.850394; stroke-linejoin:round; stroke-linecap:round; fill:none" d="M 423.621 313.269L 526.81 313.269L 526.81 298.786L 423.621 298.786L 423.621 313.269z"/>
<path style="stroke:#00ff00; stroke-width:0.850394; stroke-linejoin:round; stroke-linecap:round; fill:none" d="M 534.052 313.269L 637.241 313.269L 637.241 298.786L 534.052 298.786L 534.052 313.269z"/>
<path style="stroke:#00ffff; stroke-width:0.850394; stroke-linejoin:round; stroke-linecap:round; fill:none" d="M 695.172 791.2L 832.759 791.2L 832.759 356.717L 695.172 356.717L 695.172 791.2z"/>
<path style="stroke:#0000ff; stroke-width:0.850394; stroke-linejoin:round; stroke-linecap:round; fill:none" d="M 0 262.579L 840 262.579L 840 349.476L 0 349.476L 0 262.579z"/>
<path style="stroke:#00ff00; stroke-width:0.850394; stroke-linejoin:round; stroke-linecap:round; fill:none" d="M 818.276 827.407L 709.655 827.407L 709.655 812.924L 818.276 812.924L 818.276 827.407z"/>
<path style="stroke:#00ff00; stroke-width:0.850394; stroke-linejoin:round; stroke-linecap:round; fill:none" d="M 21.7241 827.407L 130.345 827.407L 130.345 812.924L 21.7241 812.924L 21.7241 827.407z"/>
<path style="stroke:#00ff00; stroke-width:0.850394; stroke-linejoin:round; stroke-linecap:round; fill:none" d="M 365.69 827.407L 474.31 827.407L 474.31 812.924L 365.69 812.924L 365.69 827.407z"/>
<path style="stroke:#00ffff; stroke-width:0.850394; stroke-linejoin:round; stroke-linecap:round; fill:none" d="M 137.586 342.235L 65.1724 342.235L 65.1724 269.821L 137.586 269.821L 137.586 342.235z"/>
</g>
</svg>